<svg xmlns="http://www.w3.org/2000/svg" width="236" height="64"><g fill="none" fill-rule="evenodd"><path fill="#FFF" d="M83.38 18.44v11.9l2.24-.01a1.82 1.82 0 0 1 .27-.02v.02h1.48a8.9 8.9 0 0 0 6.01-2.15 5.62 5.62 0 0 0 1.73-4.38c0-1.63-.45-2.85-1.37-3.72-1.96-1.87-5.45-1.64-5.49-1.64h-4.87zm-.01 27.13h5.99c.03 0 3.55.03 5.65-2.08 1.1-1.1 1.62-2.57 1.62-4.52 0-1.29-.4-2.3-1.2-3.1-2-1.93-5.13-2.12-7.46-2.12l-4.6.01v11.81zm6 3.43h-7.68a1.69 1.69 0 0 1-1.68-1.72l.01-30.55c0-.95.76-1.72 1.68-1.72h6.39c.65-.03 5.05-.18 7.94 2.54 1.63 1.54 2.45 3.64 2.45 6.25 0 3.3-1.29 5.93-3.75 7.67a9.43 9.43 0 0 1 3.02 1.92 7.48 7.48 0 0 1 2.26 5.58c0 2.88-.9 5.23-2.65 6.99-2.93 2.92-7.27 3.04-7.97 3.04zm28.13-11.37l-7.46.03c-2.13 0-3.56 1.6-3.56 3.96 0 .97 0 3.95 5.87 3.95 3.55 0 4.83-2.14 5.17-2.88l-.01-5.06zM112.36 49c-8.44 0-9.35-5.16-9.35-7.38 0-4.28 2.96-7.39 7.04-7.39l7.46-.03-.01-3.54v-.01c0-.02 0-1.05-.87-1.9-.86-.87-2.4-1.32-4.42-1.32-3.69 0-5.09 1-5.1 1.02l.04-.04-2.27-2.6c.36-.3 2.38-1.81 7.33-1.81 3.07 0 5.42.81 6.97 2.4a6.28 6.28 0 0 1 1.8 4.34l.03 12.54-.08.26c-.08.22-1.86 5.46-8.57 5.46zm26.3 0V30.75a3 3 0 0 0-.84-1.98c-.83-.87-2.3-1.32-4.25-1.32-2.72 0-5.07 1.03-6.23 1.64V49H124V28.1c0-.58.29-1.13.76-1.44.16-.11 3.99-2.65 8.8-2.65 2.96 0 5.22.81 6.71 2.42a6.48 6.48 0 0 1 1.73 4.35V49h-3.34zm22.9-18.1v11.89c-.34.73-1.61 2.81-5.12 2.81-4.94 0-8-3.43-8-8.95v-.05c0-.04-.07-4.4 2.46-6.98 1.3-1.34 3.07-1.99 5.4-1.99 5 0 5.26 2.7 5.27 3.2v.06zM165 15h-3.43l.01 10.4a10.86 10.86 0 0 0-5.28-1.16c-3.26 0-5.9 1.01-7.87 3.02-3.47 3.54-3.44 8.9-3.43 9.41.01 7.38 4.6 12.33 11.44 12.33 6.63 0 8.4-5.14 8.46-5.36.06-.17.09-.34.09-.52L165 15zm20 34h-14.31a1.7 1.7 0 0 1-1.69-1.71V15h3.38v30.58H185V49zm17.5-11.37l-7.47.03c-2.12 0-3.55 1.6-3.55 3.96 0 .97 0 3.95 5.87 3.95 3.55 0 4.83-2.14 5.17-2.88l-.01-5.06zM197.36 49c-8.44 0-9.35-5.16-9.35-7.38 0-4.28 2.96-7.39 7.03-7.39l7.47-.03-.01-3.54v-.01c0-.02 0-1.05-.87-1.9-.86-.87-2.4-1.32-4.42-1.32-3.69 0-5.09 1-5.1 1.02l.04-.04-2.27-2.6c.36-.3 2.38-1.81 7.33-1.81 3.07 0 5.42.81 6.97 2.4a6.28 6.28 0 0 1 1.8 4.34l.03 12.54-.08.26c-.08.22-1.86 5.46-8.57 5.46zm15.07-18.16c0-.51.27-3.2 5.27-3.2 2.33 0 4.1.64 5.4 1.98 2.53 2.58 2.47 6.94 2.47 6.98v.05c0 5.52-3.07 8.95-8.01 8.95-3.5 0-4.78-2.08-5.11-2.8l-.01-11.9v-.06zm-3.42 12.28c0 .18.03.35.09.52.07.22 1.83 5.36 8.46 5.36 6.83 0 11.43-4.95 11.44-12.32 0-.51.04-5.88-3.43-9.42-1.97-2-4.61-3.02-7.87-3.02-2.11 0-3.88.39-5.28 1.16l.01-10.4H209l.01 28.12zM236 47c0 1.11-.88 2-2 2a2 2 0 0 1-2-2 2 2 0 0 1 2.02-2c1.1 0 1.98.88 1.98 2zm-3.5 0c0 .88.65 1.59 1.52 1.59.84 0 1.48-.7 1.48-1.58 0-.9-.64-1.6-1.5-1.6-.85 0-1.5.7-1.5 1.58zm1.2 1.03h-.45v-2c.17-.02.42-.06.74-.06.37 0 .54.07.67.16.12.09.2.23.2.43 0 .24-.18.4-.4.47v.03c.19.06.28.21.34.48.06.3.1.41.14.49h-.47c-.06-.08-.1-.25-.16-.49-.03-.2-.15-.3-.4-.3h-.21v.79zm0-1.12h.22c.25 0 .45-.09.45-.3 0-.17-.13-.3-.41-.3-.12 0-.2.02-.25.03v.57z"/><path fill="#DC3710" d="M64 32a32 32 0 1 1-64 0 32 32 0 0 1 64 0"/><path fill="#FFF" d="M39 26.18h-6.72s-.36.02-.58.33c-.22.31-.09.66-.09.66l6.9 13.42c.35.86.29 1.55.29 1.55-.03 2.07-2.35 3.74-5.22 3.74-2.88 0-5.22-1.69-5.22-3.77 0-2.07 1.89-3.77 5.16-3.77a1.15 1.15 0 0 0 1.03-1.65l-6.84-13.34s-.17-.33.08-.62c.17-.18.3-.2.53-.2h9.74c.05-.08.1-.17.17-.24l2.7-2.91c.23-.25.29-.46.31-.65a63 63 0 0 0 .18-2.51c0-.24.05-.47-.37-.9-.33-.33-1.06-.32-1.06-.32H24.04s-.73 0-1.06.32c-.42.43-.37.66-.37.9s.15 2.32.18 2.5c.02.2.09.4.3.66.15.16 2.07 2.28 2.67 2.91.61.66.2 1.88.2 1.88l-9.49 18.45s-1.2 2.18.22 4.2c1.04 1.46 2.2 2.18 4.55 2.18h21.52c2.36 0 3.51-.72 4.55-2.19 1.42-2.01.22-4.19.22-4.19L39 26.18zM33 9a1 1 0 1 1 0-2 1 1 0 0 1 0 2zm-3 2a2 2 0 1 1-4 0 2 2 0 0 1 4 0"/></g></svg>